<svg width="200" height="15" viewBox="0 0 200 15" fill="none" xmlns="http://www.w3.org/2000/svg">
<path d="M4.02684 0H0V14.5174H4.02684V0Z" fill="black"/>
<path d="M10.738 0H6.71118V14.5174H10.738V0Z" fill="black"/>
<path d="M14.7652 0H13.4229V14.5174H14.7652V0Z" fill="black"/>
<path d="M21.4765 0H17.4497V14.5174H21.4765V0Z" fill="black"/>
<path d="M25.5035 0H24.1611V14.5174H25.5035V0Z" fill="black"/>
<path d="M29.5301 0H28.1877V14.5174H29.5301V0Z" fill="black"/>
<path d="M33.557 0H32.2146V14.5174H33.557V0Z" fill="black"/>
<path d="M40.2683 0H36.2415V14.5174H40.2683V0Z" fill="black"/>
<path d="M46.98 0H42.9531V14.5174H46.98V0Z" fill="black"/>
<path d="M53.6914 0H49.6646V14.5174H53.6914V0Z" fill="black"/>
<path d="M57.7181 0H56.3757V14.5174H57.7181V0Z" fill="black"/>
<path d="M64.4297 0H60.4028V14.5174H64.4297V0Z" fill="black"/>
<path d="M71.1408 0H67.114V14.5174H71.1408V0Z" fill="black"/>
<path d="M75.1678 0H73.8254V14.5174H75.1678V0Z" fill="black"/>
<path d="M81.8791 0H77.8523V14.5174H81.8791V0Z" fill="black"/>
<path d="M88.5908 0H84.564V14.5174H88.5908V0Z" fill="black"/>
<path d="M92.6175 0H91.2751V14.5174H92.6175V0Z" fill="black"/>
<path d="M99.3288 0H95.302V14.5174H99.3288V0Z" fill="black"/>
<path d="M106.04 0H102.013V14.5174H106.04V0Z" fill="black"/>
<path d="M112.752 0H108.725V14.5174H112.752V0Z" fill="black"/>
<path d="M116.778 0H115.436V14.5174H116.778V0Z" fill="black"/>
<path d="M120.805 0H119.463V14.5174H120.805V0Z" fill="black"/>
<path d="M124.832 0H123.49V14.5174H124.832V0Z" fill="black"/>
<path d="M128.859 0H127.517V14.5174H128.859V0Z" fill="black"/>
<path d="M132.886 0H131.543V14.5174H132.886V0Z" fill="black"/>
<path d="M139.597 0H135.57V14.5174H139.597V0Z" fill="black"/>
<path d="M146.309 0H142.282V14.5174H146.309V0Z" fill="black"/>
<path d="M150.336 0H148.993V14.5174H150.336V0Z" fill="black"/>
<path d="M157.047 0H153.02V14.5174H157.047V0Z" fill="black"/>
<path d="M161.074 0H159.732V14.5174H161.074V0Z" fill="black"/>
<path d="M165.101 0H163.759V14.5174H165.101V0Z" fill="black"/>
<path d="M169.128 0H167.785V14.5174H169.128V0Z" fill="black"/>
<path d="M175.839 0H171.812V14.5174H175.839V0Z" fill="black"/>
<path d="M179.866 0H178.523V14.5174H179.866V0Z" fill="black"/>
<path d="M186.577 0H182.55V14.5174H186.577V0Z" fill="black"/>
<path d="M193.289 0H189.262V14.5174H193.289V0Z" fill="black"/>
<path d="M200 0H195.973V14.5174H200V0Z" fill="black"/>
</svg>
