<svg width="1244" height="1308" viewBox="0 0 1244 1308" fill="none" xmlns="http://www.w3.org/2000/svg">
<path d="M698.211 416.603L698.547 418.414L699.883 417.146L1003.19 129.341L823.195 506.737L822.402 508.4L824.228 508.159L1238.77 453.598L871.329 653.121L869.71 654L871.329 654.879L1238.77 854.402L824.228 799.841L822.402 799.6L823.195 801.263L1003.19 1178.66L699.883 890.854L698.547 889.586L698.211 891.397L622 1302.51L545.789 891.397L545.453 889.586L544.117 890.854L240.813 1178.66L420.805 801.263L421.598 799.6L419.772 799.841L5.22684 854.402L372.671 654.879L374.29 654L372.671 653.121L5.22691 453.598L419.772 508.159L421.598 508.4L420.805 506.737L240.813 129.341L544.117 417.146L545.453 418.414L545.789 416.603L622 5.48651L698.211 416.603Z" stroke="white" stroke-width="1"/>
</svg>
